<svg width="19" height="21" viewBox="0 0 19 21" fill="none" xmlns="http://www.w3.org/2000/svg">
<path d="M16.5 2.5H15.5V0.5H13.5V2.5H5.5V0.5H3.5V2.5H2.5C1.96957 2.5 1.46086 2.71071 1.08579 3.08579C0.710714 3.46086 0.5 3.96957 0.5 4.5V18.5C0.5 19.0304 0.710714 19.5391 1.08579 19.9142C1.46086 20.2893 1.96957 20.5 2.5 20.5H16.5C17.6 20.5 18.5 19.6 18.5 18.5V4.5C18.5 3.4 17.6 2.5 16.5 2.5ZM9.5 5.5C11.16 5.5 12.5 6.84 12.5 8.5C12.5 10.16 11.16 11.5 9.5 11.5C7.84 11.5 6.5 10.16 6.5 8.5C6.5 6.84 7.84 5.5 9.5 5.5ZM15.5 17.5H3.5V16.5C3.5 14.5 7.5 13.4 9.5 13.4C11.5 13.4 15.5 14.5 15.5 16.5V17.5Z" fill="#3C3C3C"/>
</svg>
