<svg width="21" height="21" viewBox="0 0 21 21" fill="none" xmlns="http://www.w3.org/2000/svg">
<path d="M20.2419 10.8237L11.2419 0.823702C10.8629 0.401702 10.1349 0.401702 9.75589 0.823702L0.755885 10.8237C0.626342 10.9673 0.54131 11.1454 0.511129 11.3365C0.480949 11.5275 0.50692 11.7232 0.585885 11.8997C0.745885 12.2607 1.10389 12.4927 1.49889 12.4927H3.49889V19.4927C3.49889 19.7579 3.60424 20.0123 3.79178 20.1998C3.97932 20.3873 4.23367 20.4927 4.49889 20.4927H7.49889C7.7641 20.4927 8.01846 20.3873 8.20599 20.1998C8.39353 20.0123 8.49889 19.7579 8.49889 19.4927V15.4927H12.4989V19.4927C12.4989 19.7579 12.6042 20.0123 12.7918 20.1998C12.9793 20.3873 13.2337 20.4927 13.4989 20.4927H16.4989C16.7641 20.4927 17.0185 20.3873 17.206 20.1998C17.3935 20.0123 17.4989 19.7579 17.4989 19.4927V12.4927H19.4989C19.6926 12.4935 19.8823 12.438 20.0449 12.3328C20.2076 12.2277 20.3361 12.0775 20.4149 11.9006C20.4936 11.7237 20.5192 11.5276 20.4885 11.3364C20.4578 11.1452 20.3721 10.9671 20.2419 10.8237Z" fill="black"/>
</svg>
