<svg width="21" height="21" viewBox="0 0 21 21" fill="none" xmlns="http://www.w3.org/2000/svg">
<path d="M17.55 15.4C17.95 14.7 18.25 13.9 18.25 13C18.25 10.5 16.25 8.5 13.75 8.5C11.25 8.5 9.25 10.5 9.25 13C9.25 15.5 11.25 17.5 13.75 17.5C14.65 17.5 15.45 17.2 16.15 16.8L19.35 20L20.75 18.6L17.55 15.4ZM13.75 15.5C12.35 15.5 11.25 14.4 11.25 13C11.25 11.6 12.35 10.5 13.75 10.5C15.15 10.5 16.25 11.6 16.25 13C16.25 14.4 15.15 15.5 13.75 15.5Z" fill="#3C3C3C"/>
<path d="M10.25 18.5V20.5C4.73 20.5 0.25 16.02 0.25 10.5C0.25 4.98 4.73 0.5 10.25 0.5C15.09 0.5 19.12 3.94 20.05 8.5H17.98C17.6681 7.29184 17.0779 6.17338 16.2566 5.23401C15.4353 4.29465 14.4057 3.56042 13.25 3.09V3.5C13.25 4.6 12.35 5.5 11.25 5.5H9.25V7.5C9.25 8.05 8.8 8.5 8.25 8.5H6.25V10.5H8.25V13.5H7.25L2.46 8.71C2.33 9.29 2.25 9.88 2.25 10.5C2.25 14.91 5.84 18.5 10.25 18.5Z" fill="#3C3C3C"/>
</svg>
